<svg width="512" height="469" viewBox="0 0 512 469" fill="none" xmlns="http://www.w3.org/2000/svg">
<path d="M172.579 254.726C168.479 303.226 149.879 358.426 113.679 392.126C110.479 395.026 114.579 400.126 118.079 397.526C157.379 367.426 181.479 323.126 194.579 275.026C192.779 270.226 189.179 260.826 187.779 256.526C184.479 255.726 176.779 255.426 172.579 254.726ZM339.379 254.726C334.979 255.526 327.679 255.726 324.279 256.626C322.879 260.826 319.279 270.026 317.479 275.126C330.579 323.226 354.679 367.626 393.979 397.626C397.479 400.226 401.479 395.126 398.379 392.226C362.179 358.426 343.479 303.326 339.379 254.726ZM152.179 225.726C150.579 216.826 155.379 203.326 161.679 190.426C161.679 190.426 161.679 190.326 161.779 190.326C167.979 171.026 164.679 158.326 155.579 147.426C147.679 138.026 143.579 127.226 143.579 116.226C143.579 106.126 147.079 96.1256 153.879 87.2256C169.779 66.4256 154.479 36.4256 187.479 14.4256C176.379 9.22562 164.179 3.82562 149.979 0.825619C114.379 -6.67438 51.6788 38.7256 21.7788 64.0256C-8.12118 89.3256 -1.22118 100.826 7.37882 120.926C15.9788 141.326 71.7788 197.626 92.4788 218.326C113.179 239.026 157.579 254.626 152.179 225.726ZM490.279 64.2256C460.379 38.9256 397.679 -6.47438 362.079 1.02562C347.779 4.02562 335.679 9.42562 324.579 14.6256C344.879 28.1256 347.979 47.2256 350.979 71.4256C352.979 87.5256 368.379 92.5256 368.379 116.326C368.379 150.826 336.679 148.226 350.179 190.326C350.279 190.426 350.279 190.426 350.279 190.426C356.579 203.326 361.379 216.826 359.679 225.726C354.379 254.526 398.779 238.926 419.479 218.226C440.179 197.526 495.979 141.226 504.579 121.026C513.179 101.026 520.079 89.5256 490.279 64.2256Z" fill="white"/>
<path d="M342.48 202.226C340.38 193.426 335.68 186.026 336.28 169.026C336.68 158.426 341.28 148.726 347.98 140.626C354.08 133.326 357.48 125.126 357.48 116.426C357.48 96.4256 342.58 92.7256 340.18 72.8256C337.08 48.2256 333.28 26.7256 307.58 18.5256C273.18 7.62559 238.78 7.62559 204.38 18.5256C178.18 26.8256 174.68 49.0256 171.78 72.8256C170.88 80.6256 167.28 87.8256 162.58 94.0256C157.38 100.926 154.48 108.426 154.48 116.426C154.48 125.126 157.88 133.326 163.98 140.626C170.78 148.726 175.28 158.526 175.68 169.026C176.28 186.026 171.58 193.526 169.48 202.226C166.58 214.326 164.58 238.426 170.08 242.526C175.48 246.526 195.38 242.526 197.68 251.726C199.98 260.926 217.28 295.426 218.38 335.626C219.78 384.826 239.98 392.026 229.58 443.226C228.78 446.726 237.58 448.526 239.78 455.526C245.48 473.326 266.78 472.226 272.18 455.526C274.38 448.526 283.08 446.826 282.38 443.226C272.18 392.726 292.18 384.326 293.58 335.626C294.68 295.326 311.98 260.926 314.28 251.726C316.58 242.526 336.38 246.526 341.88 242.526C347.38 238.426 345.38 214.226 342.48 202.226ZM207.78 146.526C201.38 146.526 196.28 141.426 196.28 135.026C196.28 128.726 201.38 123.526 207.78 123.526C214.08 123.526 219.28 128.726 219.28 135.026C219.28 141.426 214.08 146.526 207.78 146.526ZM304.18 146.526C297.78 146.526 292.68 141.426 292.68 135.026C292.68 128.726 297.78 123.526 304.18 123.526C310.48 123.526 315.68 128.726 315.68 135.026C315.68 141.426 310.48 146.526 304.18 146.526Z" fill="white"/>
</svg>
